<svg xmlns="http://www.w3.org/2000/svg" width="64" height="64" viewBox="0 0 64 64">
  <g id="Group_55744" data-name="Group 55744" transform="translate(-1759 -696)">
    <rect id="Rectangle_35216" data-name="Rectangle 35216" width="34" height="25" transform="translate(1784 711)" fill="#ffd99d"/>
    <rect id="Rectangle_35177" data-name="Rectangle 35177" width="64" height="64" transform="translate(1759 696)" fill="none"/>
    <path id="Path_18272" data-name="Path 18272" d="M6.4,3.2A3.2,3.2,0,1,0,9.6,6.4,3.2,3.2,0,0,0,6.4,3.2M6.4,0A6.4,6.4,0,1,1,0,6.4,6.4,6.4,0,0,1,6.4,0Z" transform="translate(1766.2 702.4)" fill="#eb9b1a"/>
    <path id="Path_18267" data-name="Path 18267" d="M-18753.762-16217.016h-7.828a1.6,1.6,0,0,1-1.6-1.6v-12.057l-4.494-4.492a1.6,1.6,0,0,1-.469-1.133c0-.086,0-8.684,0-11.672a4.739,4.739,0,0,1,.914-2.822,6.231,6.231,0,0,1,1.8-1.631,8.814,8.814,0,0,1,2.438-1.018,1.68,1.68,0,0,1,.355-.039h10.25a1.6,1.6,0,0,1,.734.178l7.215,3.732h7.957a1.6,1.6,0,0,1,1.6,1.6,1.6,1.6,0,0,1-1.6,1.6h-8.346a1.6,1.6,0,0,1-.734-.178l-7.217-3.732h-9.648a5.786,5.786,0,0,0-1.387.621c-1.137.721-1.137,1.449-1.137,1.689,0,2.5,0,8.926,0,11.01l4.494,4.494a1.6,1.6,0,0,1,.469,1.131v11.119h4.629v-16.082a1.6,1.6,0,0,1,1.6-1.6,1.6,1.6,0,0,1,1.6,1.6v17.682A1.6,1.6,0,0,1-18753.762-16217.016Z" transform="translate(20530.23 16970.695)" fill="#eb9b1a"/>
    <path id="Path_18268" data-name="Path 18268" d="M-18707.4-16235.668h-32a1.6,1.6,0,0,1-1.6-1.6v-4.8a1.6,1.6,0,0,1,1.6-1.6,1.6,1.6,0,0,1,1.6,1.6v3.2h28.8v-21.389h-28.8v1.586a1.6,1.6,0,0,1-1.6,1.6,1.6,1.6,0,0,1-1.6-1.6v-3.186a1.6,1.6,0,0,1,1.6-1.6h32a1.6,1.6,0,0,1,1.6,1.6v24.588A1.6,1.6,0,0,1-18707.4-16235.668Z" transform="translate(20524.801 16972.691)" fill="#eb9b1a"/>
    <path id="Path_18269" data-name="Path 18269" d="M-18711.441-16214.876a1.6,1.6,0,0,1-1.242-.589l-10.57-12.968-11.582,13.02a1.6,1.6,0,0,1-2.26.133,1.6,1.6,0,0,1-.131-2.259l12.83-14.425a1.6,1.6,0,0,1,1.2-.536h.035a1.6,1.6,0,0,1,1.205.589l11.758,14.424a1.6,1.6,0,0,1-.229,2.251A1.6,1.6,0,0,1-18711.441-16214.876Z" transform="translate(20524.127 16966.5)" fill="#eb9b1a"/>
  </g>
</svg>
