<svg xmlns="http://www.w3.org/2000/svg" width="80.001" height="80" viewBox="0 0 80.001 80">
  <g id="Group_55739" data-name="Group 55739" transform="translate(-533 -3907)">
    <rect id="Rectangle_33792" data-name="Rectangle 33792" width="80" height="80" transform="translate(533 3907)" fill="none"/>
    <g id="Group_7311" data-name="Group 7311" transform="translate(-3 -1.917)">
      <path id="Subtraction_38" data-name="Subtraction 38" d="M15406.534,12821.419H15371.7a6.77,6.77,0,0,1-6.7-6.827l3.348-20.474a25.676,25.676,0,0,1,5.865-12.744,15.863,15.863,0,0,1,11.992-5.455h34.6a17.461,17.461,0,0,1,6.952,1.431,17.8,17.8,0,0,1,5.678,3.9,18.178,18.178,0,0,1,3.828,5.786,18.376,18.376,0,0,1,1.4,7.083v20.474a6.771,6.771,0,0,1-6.7,6.827H15418.8a6.5,6.5,0,1,0-12.264,0Zm-28.863-32.587v32h17v-32Zm25.994,0a4,4,0,0,0-4,4v7a4.005,4.005,0,0,0,4,4h20a4.007,4.007,0,0,0,4-4v-7a4,4,0,0,0-4-4Z" transform="translate(-14822.667 -8850.917)" fill="#ffd99d"/>
      <path id="Subtraction_39" data-name="Subtraction 39" d="M15406.538,12821.419H15371.7a6.77,6.77,0,0,1-6.7-6.827l3.348-20.474a25.676,25.676,0,0,1,5.865-12.744,15.863,15.863,0,0,1,11.992-5.455h34.6a17.461,17.461,0,0,1,6.952,1.431,17.8,17.8,0,0,1,5.678,3.9,18.178,18.178,0,0,1,3.828,5.786,18.376,18.376,0,0,1,1.4,7.083v20.474a6.771,6.771,0,0,1-6.7,6.827H15418.8a6.526,6.526,0,0,0,.106-4h13.064a2.766,2.766,0,0,0,2.7-2.824v-20.474a14.3,14.3,0,0,0-4.084-10.07,13.621,13.621,0,0,0-9.775-4.13h-34.6a11.8,11.8,0,0,0-9.027,4.142,21.62,21.62,0,0,0-4.886,10.725l-3.282,20.067a2.863,2.863,0,0,0,.863,1.82,2.621,2.621,0,0,0,1.822.744h34.734a6.537,6.537,0,0,0,.107,4Z" transform="translate(-14822.667 -8850.917)" fill="#4a25aa"/>
      <path id="Path_18011" data-name="Path 18011" d="M16682.5,2056.449h-6.5a2,2,0,0,1-2-2V2051a2,2,0,0,1,4,0v1.449h4.5a2,2,0,0,1,0,4Z" transform="translate(-16138.002 1907.384)" fill="#4a25aa"/>
      <path id="Path_18013_-_Outline" data-name="Path 18013 - Outline" d="M56.491,21.905a8.5,8.5,0,1,1-8.5,8.5A8.51,8.51,0,0,1,56.491,21.905Zm0,13a4.5,4.5,0,1,0-4.5-4.5A4.505,4.505,0,0,0,56.491,34.9Z" transform="translate(533.508 3937.928)" fill="#4a25aa"/>
      <path id="Rectangle_33793_-_Outline" data-name="Rectangle 33793 - Outline" d="M4,4H4v7s0,0,0,0H24V4s0,0,0,0H4M4,0H24a4,4,0,0,1,4,4v7a4,4,0,0,1-4,4H4a4,4,0,0,1-4-4V4A4,4,0,0,1,4,0Z" transform="translate(577 3937.917)" fill="#4a25aa"/>
      <path id="Rectangle_33794_-_Outline" data-name="Rectangle 33794 - Outline" d="M4,4V28h9V4H4M0,0H17V32H0Z" transform="translate(555 3937.917)" fill="#4a25aa"/>
    </g>
  </g>
</svg>
