<svg xmlns="http://www.w3.org/2000/svg" width="80" height="80" viewBox="0 0 80 80">
  <g id="Group_55825" data-name="Group 55825" transform="translate(-292 -917)">
    <path id="Subtraction_33" data-name="Subtraction 33" d="M16417,9843h-52v-59h52v59h0v0Zm-26-48.857a5.527,5.527,0,0,0-4.244,9.118,9.254,9.254,0,0,0-5.042,8.261v19.641a.776.776,0,0,0,.774.774h17.023a.776.776,0,0,0,.775-.774v-19.641a9.258,9.258,0,0,0-5.047-8.261,5.523,5.523,0,0,0-4.24-9.118Z" transform="translate(-16059 -8857)" fill="#d1bfff"/>
    <path id="Rectangle_35203_-_Outline" data-name="Rectangle 35203 - Outline" d="M4,4V60H52V4H4M.965.829A4.389,4.389,0,0,1,3.4,0H52.461a4.2,4.2,0,0,1,2.644.726A4.135,4.135,0,0,1,56,3.3V60.675a3.547,3.547,0,0,1-.8,2.361A5.019,5.019,0,0,1,52.574,64H3.344a4.051,4.051,0,0,1-2.522-.673A3.759,3.759,0,0,1,0,60.918V3.125A3.982,3.982,0,0,1,.965.829Z" transform="translate(304 925)" fill="#4a25aa"/>
    <rect id="Rectangle_35204" data-name="Rectangle 35204" width="80" height="80" transform="translate(292 917)" fill="none"/>
    <path id="Union_58_-_Outline" data-name="Union 58 - Outline" d="M-17510-12925.218a6.007,6.007,0,0,0-6,6V-12901h12v-18.218a6.007,6.007,0,0,0-6-6m0-4a10,10,0,0,1,10,10v21.384a.833.833,0,0,1-.832.834h-18.334a.834.834,0,0,1-.834-.834v-21.384A10,10,0,0,1-17510-12929.218Z" transform="translate(17842 13874)" fill="#4a25aa"/>
    <path id="Path_18280" data-name="Path 18280" d="M16069.555,1639.952a2,2,0,0,1-2-2v-.5a2,2,0,0,1,4,0v.5A2,2,0,0,1,16069.555,1639.952Z" transform="translate(-15757.555 -679.453)" fill="#4a25aa"/>
    <path id="Ellipse_827_-_Outline" data-name="Ellipse 827 - Outline" d="M6,4A2,2,0,1,0,8,6,2,2,0,0,0,6,4M6,0A6,6,0,1,1,0,6,6,6,0,0,1,6,0Z" transform="translate(326 936)" fill="#4a25aa"/>
    <path id="Path_18281" data-name="Path 18281" d="M18616.705,16693.643c-.027,0-.053,0-.078,0a2,2,0,0,1-1.922-2.074c0-.135.5-13.611-.783-20.281a7.3,7.3,0,0,0-3.934-5.156,11.412,11.412,0,0,0-3.482-1.207l.008,0,.508-3.969a15.281,15.281,0,0,1,4.74,1.586,11.292,11.292,0,0,1,6.09,7.99c1.369,7.119.871,20.617.85,21.188A2,2,0,0,1,18616.705,16693.643Z" transform="translate(-18270.629 -15722)" fill="#4a25aa"/>
  </g>
</svg>
