<svg xmlns="http://www.w3.org/2000/svg" width="80" height="80" viewBox="0 0 80 80">
  <g id="Group_55733" data-name="Group 55733" transform="translate(-560 -240)">
    <rect id="Rectangle_33791" data-name="Rectangle 33791" width="49" height="40" transform="translate(579 256)" fill="#ffd99d"/>
    <rect id="Rectangle_33790" data-name="Rectangle 33790" width="80" height="80" transform="translate(560 240)" fill="none"/>
    <path id="Line_583" data-name="Line 583" d="M0,48a2,2,0,0,1-2-2V0A2,2,0,0,1,0-2,2,2,0,0,1,2,0V46A2,2,0,0,1,0,48Z" transform="translate(572 257)" fill="#4a25aa"/>
    <path id="Line_584" data-name="Line 584" d="M56,2H0A2,2,0,0,1-2,0,2,2,0,0,1,0-2H56a2,2,0,0,1,2,2A2,2,0,0,1,56,2Z" transform="translate(572 303)" fill="#4a25aa"/>
    <g id="Group_7307" data-name="Group 7307" transform="translate(579.091 258.182)">
      <path id="Line_458" data-name="Line 458" d="M49,2H0A2,2,0,0,1-2,0,2,2,0,0,1,0-2H49a2,2,0,0,1,2,2A2,2,0,0,1,49,2Z" transform="translate(-0.092 36.818)" fill="#4a25aa"/>
      <path id="Line_459" data-name="Line 459" d="M49,2H0A2,2,0,0,1-2,0,2,2,0,0,1,0-2H49a2,2,0,0,1,2,2A2,2,0,0,1,49,2Z" transform="translate(-0.092 26.818)" fill="#4a25aa"/>
      <path id="Line_457" data-name="Line 457" d="M49,2H0A2,2,0,0,1-2,0,2,2,0,0,1,0-2H49a2,2,0,0,1,2,2A2,2,0,0,1,49,2Z" transform="translate(-0.092 17.818)" fill="#4a25aa"/>
      <path id="Line_460" data-name="Line 460" d="M49,2H0A2,2,0,0,1-2,0,2,2,0,0,1,0-2H49a2,2,0,0,1,2,2A2,2,0,0,1,49,2Z" transform="translate(-0.092 8.818)" fill="#4a25aa"/>
      <path id="Line_461" data-name="Line 461" d="M49,2H0A2,2,0,0,1-2,0,2,2,0,0,1,0-2H49a2,2,0,0,1,2,2A2,2,0,0,1,49,2Z" transform="translate(-0.092 -0.182)" fill="#4a25aa"/>
    </g>
  </g>
</svg>
