<svg xmlns="http://www.w3.org/2000/svg" width="80" height="80" viewBox="0 0 80 80">
  <g id="Group_55727" data-name="Group 55727" transform="translate(-1173 -55)">
    <rect id="Rectangle_33511" data-name="Rectangle 33511" width="80" height="80" transform="translate(1173 55)" fill="none"/>
    <path id="Rectangle_33512_-_Outline" data-name="Rectangle 33512 - Outline" d="M16,4A12,12,0,0,0,4,16v8H28V16A12,12,0,0,0,16,4m0-4A16,16,0,0,1,32,16v9a3,3,0,0,1-3,3H3a3,3,0,0,1-3-3V16A16,16,0,0,1,16,0Z" transform="translate(1197 65)" fill="#4a25aa"/>
    <path id="Rectangle_33513" data-name="Rectangle 33513" d="M9,4A5.006,5.006,0,0,0,4,9v8H14V9A5.006,5.006,0,0,0,9,4M9,0a9,9,0,0,1,9,9V19.313A1.688,1.688,0,0,1,16.313,21H1.688A1.688,1.688,0,0,1,0,19.313V9A9,9,0,0,1,9,0Z" transform="translate(1204 72)" fill="#4a25aa"/>
    <rect id="Rectangle_33514" data-name="Rectangle 33514" width="48" height="37" rx="6" transform="translate(1189 88)" fill="#ffd99d"/>
    <path id="Rectangle_33514_-_Outline" data-name="Rectangle 33514 - Outline" d="M6,4A2,2,0,0,0,4,6V31a2,2,0,0,0,2,2H42a2,2,0,0,0,2-2V6a2,2,0,0,0-2-2H6M6,0H42a6,6,0,0,1,6,6V31a6,6,0,0,1-6,6H6a6,6,0,0,1-6-6V6A6,6,0,0,1,6,0Z" transform="translate(1189 88)" fill="#4a25aa"/>
    <circle id="Ellipse_653" data-name="Ellipse 653" cx="4" cy="4" r="4" transform="translate(1209 99)" fill="#4a25aa"/>
    <path id="Path_17896" data-name="Path 17896" d="M16869,835a2,2,0,0,1-2-2V823a2,2,0,0,1,4,0v10A2,2,0,0,1,16869,835Z" transform="translate(-15656 -720.5)" fill="#4a25aa"/>
  </g>
</svg>
