<svg xmlns="http://www.w3.org/2000/svg" width="80" height="80" viewBox="0 0 80 80">
  <g id="Group_55741" data-name="Group 55741" transform="translate(-1049 -3907)">
    <rect id="Rectangle_33786" data-name="Rectangle 33786" width="80" height="80" transform="translate(1049 3907)" fill="none"/>
    <path id="Union_47" data-name="Union 47" d="M-15981.152-695.952c-.627.788-5.7,6.328-7.624,4.258-1.351-1.452.444-10.461-.13-11.182l-8.222-7.256a3,3,0,0,1,2.348-4.868h22.561a3,3,0,0,1,2.348,4.868Z" transform="translate(11037.642 -8568.372) rotate(-54)" fill="#ffd99d"/>
    <path id="Union_76" data-name="Union 76" d="M19936.891,22224.619a2,2,0,0,1-3.791-1.076l.164-1.561-5.273-3.83a2,2,0,0,1-3.787-1.08l.162-1.555-5.033-3.658a2,2,0,0,1-3.793-1.074l.164-1.562-8.541-6.207-9.84.424a2.993,2.993,0,0,1-2.555-4.752l13.258-18.252a3,3,0,0,1,5.316.959l3.063,11.029.988.717.027-.254a2,2,0,0,1,3.982.418l-.27,2.555,4.922,3.576.027-.264a2,2,0,1,1,3.977.42l-.268,2.557,5.162,3.752.025-.258a2,2,0,0,1,3.979.418l-.27,2.553,8.6,6.25,1.25,9.377-9.482,1.953Zm3.092-2.7,4.1-.848-.529-3.982-5.348-3.885-.723,6.9Zm-6.236-4.533.725-6.895-5.162-3.75-.725,6.895Zm-8.9-6.465.725-6.893-4.924-3.576-.725,6.891Zm-15.338-11.146,6.676,4.852.725-6.891-2.854-2.072a4.034,4.034,0,0,1-1.508-2.17l-2.5-9.031-10.82,14.895,7.758-.342c.059,0,.115,0,.174,0A4.012,4.012,0,0,1,19909.51,22199.775Z" transform="translate(-18837.068 -18247.273)" fill="#4a25aa"/>
    <g id="Group_7304" data-name="Group 7304" transform="translate(713 3069.5)">
      <path id="Subtraction_41" data-name="Subtraction 41" d="M16119.68,9504.5h-11.358a4.008,4.008,0,0,1-3.474-2.016l-5.716-10a4.03,4.03,0,0,1,0-3.971l5.716-10a4.01,4.01,0,0,1,3.474-2.017h11.358a4.007,4.007,0,0,1,3.473,2.017l5.712,10a4.015,4.015,0,0,1,0,3.971l-5.712,10A4.006,4.006,0,0,1,16119.68,9504.5Zm-8.031-20a2.017,2.017,0,0,0-1.729.992l-2.332,4a2,2,0,0,0,0,2.016l2.332,4a2.016,2.016,0,0,0,1.729.991h4.7a2.014,2.014,0,0,0,1.729-.991l2.332-4a2,2,0,0,0,0-2.016l-2.332-4a2.015,2.015,0,0,0-1.729-.992Z" transform="translate(-15722 -8627)" fill="#ffd99d"/>
      <path id="Polygon_3_-_Outline" data-name="Polygon 3 - Outline" d="M10.321,4,4.607,14l5.714,10H21.679l5.714-10L21.679,4H10.321m0-4H21.679a4,4,0,0,1,3.473,2.015l5.714,10a4,4,0,0,1,0,3.969l-5.714,10A4,4,0,0,1,21.679,28H10.321a4,4,0,0,1-3.473-2.015l-5.714-10a4,4,0,0,1,0-3.969l5.714-10A4,4,0,0,1,10.321,0Z" transform="translate(376 849.5)" fill="#4a25aa"/>
      <path id="Polygon_4_-_Outline" data-name="Polygon 4 - Outline" d="M5.8,4,4.631,6,5.8,8H8.2L9.369,6,8.2,4H5.8M4.649,0h4.7a2,2,0,0,1,1.728.992l2.333,4a2,2,0,0,1,0,2.015l-2.333,4A2,2,0,0,1,9.351,12h-4.7a2,2,0,0,1-1.728-.992l-2.333-4a2,2,0,0,1,0-2.015l2.333-4A2,2,0,0,1,4.649,0Z" transform="translate(385 857.5)" fill="#4a25aa"/>
    </g>
  </g>
</svg>
