<svg xmlns="http://www.w3.org/2000/svg" width="80" height="80" viewBox="0 0 80 80">
  <g id="Group_55740" data-name="Group 55740" transform="translate(-544 -1712)">
    <path id="Subtraction_40" data-name="Subtraction 40" d="M16645.961,10395h0l-3.961-.5-3.957.5-3.615-1.7-3.918-.749-2.912-2.731-3.5-1.924-1.92-3.5-2.736-2.911-.742-3.919-1.705-3.61.5-3.961-.5-3.961,1.7-3.61.746-3.919,2.734-2.911,1.92-3.5,3.5-1.925,2.912-2.73,3.918-.745,3.615-1.7,3.957.5,3.961-.5,3.609,1.7,3.924.745,2.906,2.73,3.5,1.925,1.924,3.5,2.73,2.911.752,3.919,1.7,3.61-.5,3.961.5,3.961-1.7,3.61-.748,3.919-2.732,2.911-1.924,3.5-3.5,1.924-2.906,2.731-3.924.749-3.609,1.7Zm-3.961-33a8,8,0,1,0,8,8A8.009,8.009,0,0,0,16642,10362Z" transform="translate(-16065 -8623)" fill="#d1bfff"/>
    <path id="Polygon_11_-_Outline" data-name="Polygon 11 - Outline" d="M28.308,4.114,25,4.532l-3.308-.418-3.017,1.42L15.4,6.159,12.969,8.441l-2.922,1.606L8.441,12.969,6.159,15.4l-.625,3.275L4.114,21.692,4.532,25l-.418,3.308,1.42,3.017L6.159,34.6l2.282,2.431,1.606,2.922,2.922,1.606L15.4,43.841l3.275.625,3.017,1.42L25,45.468l3.308.418,3.017-1.42,3.275-.625,2.431-2.282,2.922-1.606,1.606-2.922L43.841,34.6l.625-3.275,1.42-3.017L45.468,25l.418-3.308-1.419-3.017L43.841,15.4l-2.282-2.431-1.606-2.922L37.031,8.441,34.6,6.159l-3.275-.625-3.017-1.42M21.04,0,25,.5,28.96,0l3.611,1.7,3.92.748L39.4,5.179,42.9,7.1l1.923,3.5,2.732,2.91.748,3.92L50,21.04,49.5,25l.5,3.96-1.7,3.611-.748,3.92L44.821,39.4,42.9,42.9l-3.5,1.923-2.91,2.732-3.92.748L28.96,50,25,49.5l-3.96.5-3.611-1.7-3.92-.748L10.6,44.821,7.1,42.9,5.179,39.4l-2.732-2.91L1.7,32.571,0,28.96.5,25,0,21.04l1.7-3.611.748-3.92L5.179,10.6,7.1,7.1l3.5-1.923,2.91-2.732,3.92-.748Z" transform="translate(552 1722)" fill="#4a25aa"/>
    <rect id="Rectangle_34779" data-name="Rectangle 34779" width="80" height="80" transform="translate(544 1712)" fill="none"/>
    <path id="Rectangle_34780" data-name="Rectangle 34780" d="M5,0H5a5,5,0,0,1,5,5V32a0,0,0,0,1,0,0H0a0,0,0,0,1,0,0V5A5,5,0,0,1,5,0Z" transform="translate(606 1738)" fill="#d1bfff"/>
    <path id="Rectangle_34780_-_Outline" data-name="Rectangle 34780 - Outline" d="M5,4A1,1,0,0,0,4,5V28H6V5A1,1,0,0,0,5,4M5,0a5,5,0,0,1,5,5V32H0V5A5,5,0,0,1,5,0Z" transform="translate(606 1738)" fill="#4a25aa"/>
    <path id="Ellipse_718_-_Outline" data-name="Ellipse 718 - Outline" d="M8,4a4,4,0,1,0,4,4A4,4,0,0,0,8,4M8,0A8,8,0,1,1,0,8,8,8,0,0,1,8,0Z" transform="translate(569 1739)" fill="#4a25aa"/>
    <path id="b" d="M2.86,63.11a2,2,0,0,1-2-2V35.65A2.885,2.885,0,0,0,.825,35.2l0-.021L.083,30.21A7.191,7.191,0,0,1,.5,26.516l.485-1.248.315-.846a3.191,3.191,0,0,0,0-2.239l0-.007-.313-.842-.233-.593A7.175,7.175,0,0,1,.775,15.4l0-.007.241-.591.1-.206a3.257,3.257,0,0,0,0-2.533L1,11.819l-.039-.093A7.208,7.208,0,0,1,.893,5.983l.125-.306.022-.048a6.93,6.93,0,0,0-.061-2.8L.94,2.635V.957a2,2,0,0,1,4,0v1.3a15.514,15.514,0,0,1,.187,1.567,7.23,7.23,0,0,1-.441,3.452l-.105.258a3.2,3.2,0,0,0,.04,2.57l.025.058.032.076.1.2a7.27,7.27,0,0,1,0,5.774l-.028.062-.066.14-.2.484a3.193,3.193,0,0,0-.014,2.374l.254.648.319.856a7.189,7.189,0,0,1,0,5.04l-.33.886-.49,1.26A3.185,3.185,0,0,0,4.036,29.6l0,.013.739,4.96A6.9,6.9,0,0,1,4.86,35.65V61.11A2,2,0,0,1,2.86,63.11Z" transform="translate(615.109 1778) rotate(90)" fill="#4a25aa"/>
    <path id="b-2" data-name="b" d="M4.818,18.806l-4-.057L.8,17.955a2,2,0,0,1,.1-.671l.057-1.032.051-.195c.4-1.521.427-2.255.112-2.993L1,12.819l-.039-.093A7.209,7.209,0,0,1,.893,6.982l.125-.306.022-.048a7.909,7.909,0,0,0-.066-3,2,2,0,0,1,3.932-.737A16.93,16.93,0,0,1,5.127,4.74a7.511,7.511,0,0,1-.441,3.535l-.105.258a3.2,3.2,0,0,0,.04,2.57l.025.058.032.076.1.2a6.612,6.612,0,0,1,.556,2.847,11.482,11.482,0,0,1-.4,2.584Z" transform="translate(608.146 1721.904)" fill="#4a25aa"/>
  </g>
</svg>
