<svg xmlns="http://www.w3.org/2000/svg" width="80" height="80" viewBox="0 0 80 80">
  <g id="Group_57673" data-name="Group 57673" transform="translate(-1229 -4006)">
    <rect id="Rectangle_33811" data-name="Rectangle 33811" width="80" height="80" transform="translate(1229 4006)" fill="none"/>
    <path id="Path_18032" data-name="Path 18032" d="M16828,2306.62l24-7.62v30.48l-24,7.62Z" transform="translate(-15559 1739)" fill="#ffd99d" stroke="#4a25aa" stroke-linejoin="round" stroke-width="4"/>
    <path id="Path_18033" data-name="Path 18033" d="M16828,2306.62l24-7.62,24,8-24,8Z" transform="translate(-15583 1731)" fill="#f8f8f8" stroke="#4a25aa" stroke-linejoin="round" stroke-width="4"/>
    <path id="Path_18034" data-name="Path 18034" d="M16852,2306.62l-24-7.62v30.48l24,7.62Z" transform="translate(-15583 1739)" fill="#f8f8f8" stroke="#4a25aa" stroke-linejoin="round" stroke-width="4"/>
    <path id="Path_18035" data-name="Path 18035" d="M16828,2299l8,8,24-8-8-8Z" transform="translate(-15559 1747)" fill="#ffd99d" stroke="#4a25aa" stroke-linecap="round" stroke-linejoin="round" stroke-width="4"/>
    <path id="Path_18036" data-name="Path 18036" d="M16828,2299l8-8,24,8-8,8Z" transform="translate(-15591 1747)" fill="#f8f8f8" stroke="#4a25aa" stroke-linecap="round" stroke-linejoin="round" stroke-width="4"/>
    <g id="Polygon_9" data-name="Polygon 9" transform="translate(1251 4007)" fill="#4a25aa">
      <path d="M 8.999999046325684 12.92281150817871 L 8.32736873626709 11.35334968566895 C 8.002219200134277 10.59467029571533 7.40532922744751 9.997779846191406 6.64664888381958 9.672630310058594 L 5.077188014984131 9 L 6.64664888381958 8.327369689941406 C 7.40532922744751 8.002220153808594 8.002219200134277 7.405330181121826 8.32736873626709 6.646649837493896 L 8.999999046325684 5.077188968658447 L 9.672629356384277 6.646649837493896 C 9.99777889251709 7.405330181121826 10.59466934204102 8.002220153808594 11.35334873199463 8.327369689941406 L 12.92281818389893 9.000000953674316 L 11.35334873199463 9.672630310058594 C 10.59466934204102 9.997779846191406 9.99777889251709 10.59467029571533 9.672629356384277 11.35334968566895 L 8.999999046325684 12.92281150817871 Z" stroke="none"/>
      <path d="M 8.999999046325684 1.846311569213867 C 9.447587013244629 1.846311569213867 9.895174026489258 2.0887451171875 10.1029691696167 2.573610305786133 L 11.51091957092285 5.858810424804688 C 11.63229942321777 6.142029762268066 11.85796928405762 6.36769962310791 12.14118957519531 6.489080429077148 L 15.42639923095703 7.897029876708984 C 16.3961181640625 8.312620162963867 16.3961181640625 9.687379837036133 15.42639923095703 10.10297012329102 L 12.14118957519531 11.51091957092285 C 11.85796928405762 11.63229942321777 11.63229942321777 11.85797023773193 11.51091957092285 12.14118957519531 L 10.1029691696167 15.42638969421387 C 9.687378883361816 16.39612007141113 8.312619209289551 16.39612007141113 7.897028923034668 15.42638969421387 L 6.489079475402832 12.14118957519531 C 6.367698669433594 11.85797023773193 6.14202880859375 11.63229942321777 5.858809471130371 11.51091957092285 L 2.573609352111816 10.10297012329102 C 1.603879928588867 9.687379837036133 1.603879928588867 8.312620162963867 2.573609352111816 7.897029876708984 L 5.858809471130371 6.489080429077148 C 6.14202880859375 6.36769962310791 6.367698669433594 6.142029762268066 6.489079475402832 5.858810424804688 L 7.897028923034668 2.573610305786133 C 8.104824066162109 2.0887451171875 8.552411079406738 1.846311569213867 8.999999046325684 1.846311569213867 Z" stroke="none" fill="#4a25aa"/>
    </g>
    <g id="Polygon_10" data-name="Polygon 10" transform="translate(1271 4014)" fill="#4a25aa">
      <path d="M 7.499998092651367 9.922823905944824 L 7.24586009979248 9.329830169677734 C 6.9410400390625 8.618559837341309 6.381440162658691 8.0589599609375 5.670169830322266 7.75413990020752 L 5.077176094055176 7.499998092651367 L 5.670169830322266 7.24586009979248 C 6.381440162658691 6.9410400390625 6.9410400390625 6.381440162658691 7.24586009979248 5.670169830322266 L 7.499997138977051 5.077179431915283 L 7.75413990020752 5.670179843902588 C 8.0589599609375 6.381440162658691 8.618559837341309 6.9410400390625 9.329830169677734 7.24586009979248 L 9.922823905944824 7.500001907348633 L 9.329830169677734 7.75413990020752 C 8.618559837341309 8.0589599609375 8.0589599609375 8.618559837341309 7.75413990020752 9.329830169677734 L 7.499998092651367 9.922823905944824 Z" stroke="none"/>
      <path d="M 7.499998569488525 1.53858757019043 C 7.872987270355225 1.53858757019043 8.245975494384766 1.740614891052246 8.419139862060547 2.144669532775879 L 9.592430114746094 4.882340431213379 C 9.693580627441406 5.118359565734863 9.88163948059082 5.30642032623291 10.11766052246094 5.407569885253906 L 12.8553295135498 6.580860137939453 C 13.66343975067139 6.927189826965332 13.66343975067139 8.072810173034668 12.8553295135498 8.419149398803711 L 10.11766052246094 9.592430114746094 C 9.88163948059082 9.693580627441406 9.693580627441406 9.88163948059082 9.592430114746094 10.11766052246094 L 8.419139862060547 12.8553295135498 C 8.072810173034668 13.66343975067139 6.927189826965332 13.66343975067139 6.580849647521973 12.8553295135498 L 5.407569885253906 10.11766052246094 C 5.30642032623291 9.88163948059082 5.118359565734863 9.693580627441406 4.882340431213379 9.592430114746094 L 2.144669532775879 8.419139862060547 C 1.336560249328613 8.072810173034668 1.336560249328613 6.927189826965332 2.144669532775879 6.580849647521973 L 4.882340431213379 5.407569885253906 C 5.118359565734863 5.30642032623291 5.30642032623291 5.118359565734863 5.407569885253906 4.882340431213379 L 6.580849647521973 2.144669532775879 C 6.754019737243652 1.740614891052246 7.127009868621826 1.53858757019043 7.499998569488525 1.53858757019043 Z" stroke="none" fill="#4a25aa"/>
    </g>
  </g>
</svg>
