<svg xmlns="http://www.w3.org/2000/svg" width="80" height="80" viewBox="0 0 80 80">
  <g id="Group_55737" data-name="Group 55737" transform="translate(-736 -1424)">
    <path id="Path_18015" data-name="Path 18015" d="M16868,2125h-64v-4h64Z" transform="translate(-16060 -682)" fill="#4a25aa"/>
    <circle id="Ellipse_687" data-name="Ellipse 687" cx="4" cy="4" r="4" transform="translate(804 1437)" fill="#4a25aa"/>
    <path id="Subtraction_36" data-name="Subtraction 36" d="M16235,10339h-38v-39.894a5.149,5.149,0,0,0,.024-1.108H16201a7.007,7.007,0,0,0-6.762-7h32.381l.152,0a9,9,0,0,1,5.811,2.163,8.422,8.422,0,0,1,2.42,6.109V10339Zm-42-47.932h0a.531.531,0,0,1,0-.062l.765,0a6.957,6.957,0,0,0-.762.067Z" transform="translate(-15435 -8859.001)" fill="#ffd99d"/>
    <path id="Path_18016_-_Outline" data-name="Path 18016 - Outline" d="M29.769,4a1.759,1.759,0,0,1-.207,0H3.443A9.817,9.817,0,0,1,3.91,5.769,9.782,9.782,0,0,1,4,8.351v51.6c.094.018.189.033.278.044H34V8.271a1.77,1.77,0,0,1,0-.18,4.435,4.435,0,0,0-1.1-2.963A5.055,5.055,0,0,0,29.769,4m0-4A9,9,0,0,1,35.58,2.158,8.392,8.392,0,0,1,38,8.271V60.924a3.216,3.216,0,0,1-.8,2.416A5.179,5.179,0,0,1,34.28,64H4.081A6.539,6.539,0,0,1,1.2,63.1,3.569,3.569,0,0,1,0,60.924V8.1a5.717,5.717,0,0,0-1.8-4.92C-4.1,1.087-4,0-4,0H29.562S29.635,0,29.768,0Z" transform="translate(762 1432.004)" fill="#4a25aa"/>
    <rect id="Rectangle_33796" data-name="Rectangle 33796" width="80" height="80" transform="translate(736 1424)" fill="none"/>
    <circle id="Ellipse_688" data-name="Ellipse 688" cx="4" cy="4" r="4" transform="translate(740 1437)" fill="#4a25aa"/>
    <path id="Subtraction_35" data-name="Subtraction 35" d="M16191,10298h-4a7,7,0,0,1,14,0h-4a3,3,0,0,0-6,0Z" transform="translate(-15435 -8859)" fill="#4a25aa"/>
    <rect id="Rectangle_33799" data-name="Rectangle 33799" width="14" height="24" transform="translate(752 1439)" fill="none"/>
    <path id="Rectangle_33799_-_Outline" data-name="Rectangle 33799 - Outline" d="M4,4V20h6V4H4M0,0H14V24H0Z" transform="translate(752 1439)" fill="#4a25aa"/>
    <path id="Rectangle_33801_-_Outline" data-name="Rectangle 33801 - Outline" d="M4,4v8H34V4H4M0,0H38V16H0Z" transform="translate(762 1480)" fill="#4a25aa"/>
  </g>
</svg>
