<svg xmlns="http://www.w3.org/2000/svg" width="80" height="80" viewBox="0 0 80 80">
  <g id="Group_55735" data-name="Group 55735" transform="translate(-136 -1712)">
    <rect id="Rectangle_34755" data-name="Rectangle 34755" width="36" height="40" transform="translate(144 1736)" fill="#d1bfff"/>
    <path id="Rectangle_34755_-_Outline" data-name="Rectangle 34755 - Outline" d="M4,4V36H32V4H4M0,0H36V40H0Z" transform="translate(144 1736)" fill="#4a25aa"/>
    <path id="Rectangle_34757" data-name="Rectangle 34757" d="M4,4V18H28V4H4M0,0H32V22H0Z" transform="translate(176 1736)" fill="#4a25aa"/>
    <path id="Rectangle_34758" data-name="Rectangle 34758" d="M4,4V18H28V4H4M0,0H32V22H0Z" transform="translate(176 1754)" fill="#4a25aa"/>
    <path id="Rectangle_34759" data-name="Rectangle 34759" d="M4,4V8H60V4H4M0,0H64V12H0Z" transform="translate(144 1772)" fill="#4a25aa"/>
    <rect id="Rectangle_34754" data-name="Rectangle 34754" width="80" height="80" transform="translate(136 1712)" fill="none"/>
    <path id="Line_606" data-name="Line 606" d="M4,2H0A2,2,0,0,1-2,0,2,2,0,0,1,0-2H4A2,2,0,0,1,6,0,2,2,0,0,1,4,2Z" transform="translate(190 1747)" fill="#4a25aa"/>
    <path id="Line_607" data-name="Line 607" d="M4,2H0A2,2,0,0,1-2,0,2,2,0,0,1,0-2H4A2,2,0,0,1,6,0,2,2,0,0,1,4,2Z" transform="translate(190 1765)" fill="#4a25aa"/>
    <path id="Line_608" data-name="Line 608" d="M4,2H0A2,2,0,0,1-2,0,2,2,0,0,1,0-2H4A2,2,0,0,1,6,0,2,2,0,0,1,4,2Z" transform="translate(154 1747)" fill="#4a25aa"/>
    <path id="Path_18075" data-name="Path 18075" d="M16204,2421a2,2,0,0,1-2-2v-7.937a12.669,12.669,0,0,1,.15-2.586,9.52,9.52,0,0,1,2.271-5.023,8.065,8.065,0,0,1,6.114-2.454h.009a9.553,9.553,0,0,1,3.717.708,7.383,7.383,0,0,1,2.621,1.867,9.309,9.309,0,0,1,2.16,4.994,2.059,2.059,0,0,1-1.989,2.248,2.025,2.025,0,0,1-1.975-1.66,5.821,5.821,0,0,0-1.184-2.922,4.308,4.308,0,0,0-3.363-1.236,4.086,4.086,0,0,0-3.176,1.171,7.075,7.075,0,0,0-1.362,4.675l.006.077V2419A2,2,0,0,1,16204,2421Z" transform="translate(-16051.986 -681)" fill="#4a25aa"/>
  </g>
</svg>
