<svg xmlns="http://www.w3.org/2000/svg" width="80" height="80" viewBox="0 0 80 80">
  <g id="Group_57775" data-name="Group 57775" transform="translate(-352 -2640)">
    <rect id="Rectangle_34754" data-name="Rectangle 34754" width="80" height="80" transform="translate(352 2640)" fill="none"/>
    <g id="Group_57675" data-name="Group 57675" transform="translate(0.5)">
      <path id="Subtraction_44" data-name="Subtraction 44" d="M-13405.908,63.564a4.968,4.968,0,0,1-2.742-.826l-2.1-1.38a4.99,4.99,0,0,0-2.752-.825,4.99,4.99,0,0,0-2.752.825l-2.1,1.38a4.969,4.969,0,0,1-2.742.826,5.008,5.008,0,0,1-4.587-2.993l-.9-2.052a5.007,5.007,0,0,0-4.582-2.991l-.126,0-2.368.064-.132,0a4.988,4.988,0,0,1-3.83-1.788,4.99,4.99,0,0,1-1.094-4.085l.327-1.846a5.018,5.018,0,0,0-2.4-5.187l-1.707-1a4.974,4.974,0,0,1-2.424-3.607,4.972,4.972,0,0,1,1.316-4.141l1.263-1.336a5.017,5.017,0,0,0,.83-5.693l-.813-1.606a4.978,4.978,0,0,1-.094-4.321,4.983,4.983,0,0,1,3.313-2.783l2.112-.54a4.986,4.986,0,0,0,2.519-1.547,4.976,4.976,0,0,0,1.2-2.7l.246-2.025a5,5,0,0,1,4.96-4.407,5.016,5.016,0,0,1,1.5.23l2.379.746a5,5,0,0,0,1.49.227,4.993,4.993,0,0,0,3.814-1.766l1.563-1.842a4.985,4.985,0,0,1,3.813-1.767,4.994,4.994,0,0,1,3.814,1.767l1.562,1.842a4.984,4.984,0,0,0,3.814,1.766,5,5,0,0,0,1.49-.227l2.379-.746a5.015,5.015,0,0,1,1.494-.23,5.006,5.006,0,0,1,4.962,4.407l.242,2.025a4.981,4.981,0,0,0,1.205,2.7,4.985,4.985,0,0,0,2.518,1.547l2.112.54a4.98,4.98,0,0,1,3.313,2.782,4.98,4.98,0,0,1-.094,4.321l-.812,1.606a5.013,5.013,0,0,0,.83,5.693l1.262,1.336a4.972,4.972,0,0,1,1.316,4.141,4.976,4.976,0,0,1-2.423,3.607l-1.708,1a5.021,5.021,0,0,0-2.4,5.187l.327,1.846a4.99,4.99,0,0,1-1.094,4.085,4.987,4.987,0,0,1-3.829,1.788l-.132,0-2.369-.064-.126,0a5,5,0,0,0-4.581,2.991l-.9,2.052A5.007,5.007,0,0,1-13405.908,63.564Zm2.164-26.708a4.944,4.944,0,0,0-4.937,4.94,4.942,4.942,0,0,0,4.937,4.937,4.944,4.944,0,0,0,4.94-4.937A4.946,4.946,0,0,0-13403.744,36.856Zm-19.008-17.507a4.442,4.442,0,0,0-4.437,4.437,4.442,4.442,0,0,0,4.438,4.437,4.442,4.442,0,0,0,4.438-4.437A4.442,4.442,0,0,0-13422.752,19.349Z" transform="translate(13805.047 2647.233)" fill="#ffd99d"/>
      <path id="Polygon_12" data-name="Polygon 12" d="M35.5,6.184h0L32.509,9.711a8,8,0,0,1-8.487,2.461l-4.515-1.411h0l-.513,4.259a8,8,0,0,1-5.957,6.793L8.693,22.926,10.551,26.6A8.02,8.02,0,0,1,9.226,35.7l-2.864,3.03,3.716,2.177a8,8,0,0,1,3.834,8.3l-.725,4.1,4.64-.12a8,8,0,0,1,7.532,4.782l1.794,4.087h0l3.945-2.6a8,8,0,0,1,8.8,0l3.945,2.6h0l1.794-4.087a8,8,0,0,1,7.325-4.785l.208,0,4.639.12h0l-.725-4.1a8,8,0,0,1,3.834-8.3l3.716-2.177h0L61.774,35.7A8.02,8.02,0,0,1,60.449,26.6l1.857-3.672-4.343-1.113a8,8,0,0,1-5.957-6.793l-.513-4.259h0l-4.516,1.411a8,8,0,0,1-8.487-2.461L35.5,6.184m0-4A3.982,3.982,0,0,1,38.55,3.6l2.991,3.527a4,4,0,0,0,4.243,1.231L50.3,6.943a4,4,0,0,1,5.164,3.34l.513,4.259a4,4,0,0,0,2.979,3.4L63.3,19.051a4,4,0,0,1,2.577,5.68L64.019,28.4a4,4,0,0,0,.662,4.553l2.864,3.03a4,4,0,0,1-.885,6.2l-3.716,2.177a4,4,0,0,0-1.917,4.148l.725,4.1a4,4,0,0,1-4.042,4.7l-4.639-.12A4,4,0,0,0,49.3,59.572L47.51,63.659a4,4,0,0,1-5.864,1.732l-3.945-2.6a4,4,0,0,0-4.4,0l-3.945,2.6a4,4,0,0,1-5.864-1.732L21.7,59.572a4,4,0,0,0-3.766-2.391l-4.639.12a4,4,0,0,1-4.042-4.7l.725-4.1a4,4,0,0,0-1.917-4.148L4.34,42.184a4,4,0,0,1-.885-6.2l2.864-3.03A4,4,0,0,0,6.981,28.4L5.124,24.731A4,4,0,0,1,7.7,19.051l4.343-1.113a4,4,0,0,0,2.979-3.4l.513-4.259A4,4,0,0,1,20.7,6.943l4.516,1.411a4,4,0,0,0,4.243-1.231L32.45,3.6A3.982,3.982,0,0,1,35.5,2.184Z" transform="translate(356 2646)" fill="#4a25aa"/>
      <path id="Path_18663" data-name="Path 18663" d="M13828.524,2689.653a2,2,0,0,1-1.414-3.414l19.83-19.831a2,2,0,0,1,2.828,2.828l-19.83,19.831A1.994,1.994,0,0,1,13828.524,2689.653Z" transform="translate(-13446.439 2.262)" fill="#4a25aa"/>
      <path id="Ellipse_943" data-name="Ellipse 943" d="M7,4a3,3,0,1,0,3,3A3,3,0,0,0,7,4M7,0A7,7,0,1,1,0,7,7,7,0,0,1,7,0Z" transform="translate(376 2664)" fill="#4a25aa"/>
      <path id="Ellipse_944" data-name="Ellipse 944" d="M7,4a3,3,0,1,0,3,3A3,3,0,0,0,7,4M7,0A7,7,0,1,1,0,7,7,7,0,0,1,7,0Z" transform="translate(394 2682)" fill="#4a25aa"/>
    </g>
  </g>
</svg>
