<svg id="Group_55682" data-name="Group 55682" xmlns="http://www.w3.org/2000/svg" xmlns:xlink="http://www.w3.org/1999/xlink" width="80" height="80" viewBox="0 0 80 80">
  <defs>
    <clipPath id="clip-path">
      <rect id="Rectangle_33459" data-name="Rectangle 33459" width="72" height="38" fill="#d1bfff" stroke="#4a25aa" stroke-width="1"/>
    </clipPath>
  </defs>
  <rect id="Rectangle_33519" data-name="Rectangle 33519" width="80" height="80" fill="none"/>
  <g id="Group_7074" data-name="Group 7074" transform="translate(4 23)">
    <g id="Mask_Group_234" data-name="Mask Group 234" transform="translate(0 0)" clip-path="url(#clip-path)">
      <path id="Subtraction_30" data-name="Subtraction 30" d="M14888.56,9570.631h-1.991a6.158,6.158,0,0,0,.032-.639,6.535,6.535,0,0,0-13.067,0c0,.205.01.41.029.608l-25.215-.058c.016-.181.024-.365.024-.551a6.536,6.536,0,0,0-13.068,0c0,.183.007.358.021.521h-.97a14.532,14.532,0,0,1-4.854-.663,5.389,5.389,0,0,1-3.5-5.2v-2.987a6.009,6.009,0,0,1,4.516-5.774l9.679-2.311,7.872-9.394a6.126,6.126,0,0,1,4.714-2.184h23.894a6.1,6.1,0,0,1,5.61,3.626l4.217,7.951,3.835,1.446c2.708.809,4.325,2.789,4.325,5.3V9565C14894.66,9568.211,14892.037,9570.631,14888.56,9570.631Z" transform="translate(-14824.33 -9540.3)" fill="#d1bfff"/>
      <path id="Path_17847_-_Outline" data-name="Path 17847 - Outline" d="M64.559,32.63H62.872v-4h1.687a4.415,4.415,0,0,0,2.976-1.061A3.357,3.357,0,0,0,68.66,25V20.321c0-.939-.376-2.628-2.9-3.381q-.067-.02-.133-.045L61.794,15.45a2,2,0,0,1-1.061-.934L56.516,6.566q-.036-.068-.066-.138A4.1,4.1,0,0,0,52.674,4H28.781A4.135,4.135,0,0,0,25.6,5.469l-7.875,9.394a2,2,0,0,1-1.068.661l-9.65,2.3A4.009,4.009,0,0,0,4,21.662V24.65a3.414,3.414,0,0,0,2.161,3.313l.005,0a13.543,13.543,0,0,0,4.454.549h.012v4h-.012a17.189,17.189,0,0,1-5.785-.776,7,7,0,0,1-3.688-2.974A7.949,7.949,0,0,1,0,24.65V21.662a8.012,8.012,0,0,1,6.007-7.708l.046-.011,9.032-2.156L22.534,2.9A8.125,8.125,0,0,1,28.781,0H52.674a8.1,8.1,0,0,1,7.409,4.754l3.83,7.219,3.068,1.156a7.488,7.488,0,0,1,5.68,7.192V25a7.357,7.357,0,0,1-2.449,5.539A8.4,8.4,0,0,1,64.559,32.63Z" transform="translate(-0.33 -0.3)" fill="#4a25aa"/>
      <path id="Path_17851" data-name="Path 17851" d="M29.6,0H3.4" transform="translate(20.639 30.329)" fill="#a2dfff"/>
      <path id="Path_17851_-_Outline" data-name="Path 17851 - Outline" d="M29.6,2H3.4V-2H29.6Z" transform="translate(20.639 30.329)" fill="#4a25aa"/>
      <path id="Path_17849_-_Outline" data-name="Path 17849 - Outline" d="M56.525,21.9a8.405,8.405,0,1,1-8.533,8.4A8.479,8.479,0,0,1,56.525,21.9Zm0,12.809a4.406,4.406,0,1,0-4.533-4.4A4.476,4.476,0,0,0,56.525,34.714Z" transform="translate(-0.788 -0.616)" fill="#4a25aa"/>
      <path id="Path_17850_-_Outline" data-name="Path 17850 - Outline" d="M56.525,21.9a8.405,8.405,0,1,1-8.533,8.4A8.479,8.479,0,0,1,56.525,21.9Zm0,12.809a4.406,4.406,0,1,0-4.533-4.4A4.476,4.476,0,0,0,56.525,34.714Z" transform="translate(-39.018 -0.616)" fill="#4a25aa"/>
    </g>
  </g>
</svg>
