<svg xmlns="http://www.w3.org/2000/svg" width="80" height="80" viewBox="0 0 80 80">
  <g id="Group_55731" data-name="Group 55731" transform="translate(-176 -656)">
    <rect id="Rectangle_33753" data-name="Rectangle 33753" width="80" height="80" transform="translate(176 656)" fill="none"/>
    <rect id="Rectangle_33754" data-name="Rectangle 33754" width="18" height="36" transform="translate(183 678)" fill="#d1bfff"/>
    <path id="Rectangle_33754_-_Outline" data-name="Rectangle 33754 - Outline" d="M4,4V32H14V4H4M0,0H18V36H0Z" transform="translate(183 678)" fill="#4a25aa"/>
    <g id="Group_7264" data-name="Group 7264" transform="translate(199.635 691.455)">
      <path id="Path_17868" data-name="Path 17868" d="M16246.628,1122.45a2,2,0,0,1-.047-4l1.669-.04.021-1.411H16203a2,2,0,0,1,0-4h47.3a2,2,0,0,1,2,2.028l-.076,5.365a2,2,0,0,1-1.952,1.971l-3.594.086Z" transform="translate(-16202.999 -1115)" fill="#4a25aa"/>
      <path id="Path_17869" data-name="Path 17869" d="M16247.365,1036.273H16241a2,2,0,0,1-2-2V1027a2,2,0,0,1,4,0v5.273h2.363V1027a2,2,0,0,1,4,0v7.273A2,2,0,0,1,16247.365,1036.273Z" transform="translate(-16203.728 -1021.545)" fill="#4a25aa"/>
      <path id="Path_17871" data-name="Path 17871" d="M16247.365,1036.273H16241a2,2,0,0,1-2-2V1027a2,2,0,0,1,4,0v5.273h2.363V1027a2,2,0,0,1,4,0v7.273A2,2,0,0,1,16247.365,1036.273Z" transform="translate(-16210.091 -1021.545)" fill="#4a25aa"/>
      <path id="Path_17872" data-name="Path 17872" d="M16247.365,1036.273H16241a2,2,0,0,1-2-2V1027a2,2,0,0,1,4,0v5.273h2.363V1027a2,2,0,0,1,4,0v7.273A2,2,0,0,1,16247.365,1036.273Z" transform="translate(-16216.455 -1021.545)" fill="#4a25aa"/>
      <path id="Path_17873" data-name="Path 17873" d="M16247.365,1036.273H16241a2,2,0,0,1-2-2V1027a2,2,0,0,1,4,0v5.273h2.363V1027a2,2,0,0,1,4,0v7.273A2,2,0,0,1,16247.365,1036.273Z" transform="translate(-16222.818 -1021.545)" fill="#4a25aa"/>
      <path id="Path_17874" data-name="Path 17874" d="M16247.365,1036.273H16241a2,2,0,0,1-2-2V1027a2,2,0,0,1,4,0v5.273h2.363V1027a2,2,0,0,1,4,0v7.273A2,2,0,0,1,16247.365,1036.273Z" transform="translate(-16229.182 -1021.545)" fill="#4a25aa"/>
    </g>
  </g>
</svg>
