<svg xmlns="http://www.w3.org/2000/svg" width="64" height="64" viewBox="0 0 64 64">
  <g id="Group_55745" data-name="Group 55745" transform="translate(-1192 -400)">
    <circle id="Ellipse_830" data-name="Ellipse 830" cx="5" cy="5" r="5" transform="translate(1219 427)" fill="#ffd99d"/>
    <rect id="Rectangle_35175" data-name="Rectangle 35175" width="64" height="64" transform="translate(1192 400)" fill="none"/>
    <path id="Union_57_-_Outline" data-name="Union 57 - Outline" d="M20539.8,16988.613l.98-.273a3.716,3.716,0,0,0,.84-.346l.871-.49.512-.9a3.625,3.625,0,0,0,.344-.828l.273-.977-.273-.973a3.662,3.662,0,0,0-.344-.828l-.508-.895-.891-.506a3.617,3.617,0,0,0-.812-.336l-.992-.271-.992.271a3.416,3.416,0,0,0-.809.336l-.891.5-.508.9a3.584,3.584,0,0,0-.34.813l-.27.988.27.992a3.59,3.59,0,0,0,.34.818l.508.891.879.5a3.713,3.713,0,0,0,.828.344l.984.273m.824,4.984h-1.648a.823.823,0,0,1-.824-.824l-.187-1.348a6.962,6.962,0,0,1-1.555-.645l-1.082.824a.825.825,0,0,1-1.164,0l-1.168-1.168a.823.823,0,0,1,0-1.168l.824-1.082a6.594,6.594,0,0,1-.645-1.555l-1.348-.184a.823.823,0,0,1-.824-.824v-1.65a.825.825,0,0,1,.824-.826l1.348-.186a6.566,6.566,0,0,1,.645-1.551l-.824-1.086a.82.82,0,0,1,0-1.166l1.168-1.166a.822.822,0,0,1,1.164,0l1.086.82a6.758,6.758,0,0,1,1.551-.641l.188-1.35a.823.823,0,0,1,.824-.824h1.648a.826.826,0,0,1,.828.824l.184,1.35a6.687,6.687,0,0,1,1.551.641l1.086-.82a.815.815,0,0,1,.582-.242.83.83,0,0,1,.586.242l1.164,1.166a.82.82,0,0,1,0,1.166l-.82,1.086a6.91,6.91,0,0,1,.645,1.551l1.348.186a.827.827,0,0,1,.824.826v1.65a.826.826,0,0,1-.824.824l-1.348.186a6.872,6.872,0,0,1-.645,1.551l.82,1.084a.823.823,0,0,1,0,1.168l-1.164,1.168a.825.825,0,0,1-1.168,0l-1.086-.822a6.942,6.942,0,0,1-1.551.643l-.184,1.348A.826.826,0,0,1,20540.625,16993.6Z" transform="translate(-19315.803 -16552.801)" fill="#eb9b1a"/>
    <path id="Polygon_13" data-name="Polygon 13" d="M14.178,3.2,3.676,21.765l10.5,18.565h20.89l10.5-18.565L35.067,3.2H14.178M12.311,0H36.934L49.245,21.765,36.934,43.529H12.311L0,21.765Z" transform="translate(1245.766 407.378) rotate(90)" fill="#eb9b1a"/>
    <ellipse id="Ellipse_808" data-name="Ellipse 808" cx="6" cy="6.5" rx="6" ry="6.5" transform="translate(1218 448)" fill="#ffd99d"/>
    <path id="Ellipse_808_-_Outline" data-name="Ellipse 808 - Outline" d="M6.4,3.2A3.2,3.2,0,1,0,9.6,6.4,3.2,3.2,0,0,0,6.4,3.2M6.4,0A6.4,6.4,0,1,1,0,6.4,6.4,6.4,0,0,1,6.4,0Z" transform="translate(1217.6 448)" fill="#eb9b1a"/>
    <ellipse id="Ellipse_809" data-name="Ellipse 809" cx="6.5" cy="6" rx="6.5" ry="6" transform="translate(1237 438)" fill="#ffd99d"/>
    <path id="Ellipse_809_-_Outline" data-name="Ellipse 809 - Outline" d="M6.4,3.2A3.2,3.2,0,1,0,9.6,6.4,3.2,3.2,0,0,0,6.4,3.2M6.4,0A6.4,6.4,0,1,1,0,6.4,6.4,6.4,0,0,1,6.4,0Z" transform="translate(1236.8 437.6)" fill="#eb9b1a"/>
    <circle id="Ellipse_810" data-name="Ellipse 810" cx="5" cy="5" r="5" transform="translate(1238 417)" fill="#ffd99d"/>
    <path id="Ellipse_810_-_Outline" data-name="Ellipse 810 - Outline" d="M6.4,3.2A3.2,3.2,0,1,0,9.6,6.4,3.2,3.2,0,0,0,6.4,3.2M6.4,0A6.4,6.4,0,1,1,0,6.4,6.4,6.4,0,0,1,6.4,0Z" transform="translate(1236.8 415.2)" fill="#eb9b1a"/>
    <ellipse id="Ellipse_811" data-name="Ellipse 811" cx="5" cy="5.5" rx="5" ry="5.5" transform="translate(1219 405)" fill="#ffd99d"/>
    <path id="Ellipse_811_-_Outline" data-name="Ellipse 811 - Outline" d="M6.4,3.2A3.2,3.2,0,1,0,9.6,6.4,3.2,3.2,0,0,0,6.4,3.2M6.4,0A6.4,6.4,0,1,1,0,6.4,6.4,6.4,0,0,1,6.4,0Z" transform="translate(1217.6 404)" fill="#eb9b1a"/>
    <circle id="Ellipse_812" data-name="Ellipse 812" cx="6" cy="6" r="6" transform="translate(1199 416)" fill="#ffd99d"/>
    <path id="Ellipse_812_-_Outline" data-name="Ellipse 812 - Outline" d="M6.4,3.2A3.2,3.2,0,1,0,9.6,6.4,3.2,3.2,0,0,0,6.4,3.2M6.4,0A6.4,6.4,0,1,1,0,6.4,6.4,6.4,0,0,1,6.4,0Z" transform="translate(1198.4 415.2)" fill="#eb9b1a"/>
    <ellipse id="Ellipse_813" data-name="Ellipse 813" cx="5.5" cy="6" rx="5.5" ry="6" transform="translate(1200 438)" fill="#ffd99d"/>
    <path id="Ellipse_813_-_Outline" data-name="Ellipse 813 - Outline" d="M6.4,3.2A3.2,3.2,0,1,0,9.6,6.4,3.2,3.2,0,0,0,6.4,3.2M6.4,0A6.4,6.4,0,1,1,0,6.4,6.4,6.4,0,0,1,6.4,0Z" transform="translate(1198.4 437.6)" fill="#eb9b1a"/>
  </g>
</svg>
