<svg xmlns="http://www.w3.org/2000/svg" width="64" height="64" viewBox="0 0 64 64">
  <g id="Group_55780" data-name="Group 55780" transform="translate(-1504 -1560)">
    <rect id="Rectangle_35214" data-name="Rectangle 35214" width="64" height="64" transform="translate(1504 1560)" fill="none"/>
    <rect id="Rectangle_35215" data-name="Rectangle 35215" width="27" height="38" rx="6" transform="translate(1525 1576)" fill="#d9cbff"/>
    <path id="Rectangle_35215_-_Outline" data-name="Rectangle 35215 - Outline" d="M4.8,2.954A1.544,1.544,0,0,0,3.2,4.431V33.969a1.544,1.544,0,0,0,1.6,1.477H24a1.544,1.544,0,0,0,1.6-1.477V4.431A1.544,1.544,0,0,0,24,2.954H4.8M4.8,0H24a4.626,4.626,0,0,1,4.8,4.431V33.969A4.626,4.626,0,0,1,24,38.4H4.8A4.626,4.626,0,0,1,0,33.969V4.431A4.626,4.626,0,0,1,4.8,0Z" transform="translate(1524.8 1576)" fill="#7f55ea"/>
    <path id="Path_18288" data-name="Path 18288" d="M-19007.814-15367.543h0a1.6,1.6,0,0,1-1.6-1.6l.006-31.647a5.1,5.1,0,0,1,1.584-3.619,5.677,5.677,0,0,1,3.5-1.3h19.238a1.6,1.6,0,0,1,1.6,1.6,1.6,1.6,0,0,1-1.6,1.6h-19.227a2.471,2.471,0,0,0-1.406.511,1.942,1.942,0,0,0-.492,1.226l-.008,31.635A1.6,1.6,0,0,1-19007.814-15367.543Z" transform="translate(20527.814 16975.314)" fill="#7f55ea"/>
  </g>
</svg>
