<svg xmlns="http://www.w3.org/2000/svg" width="64" height="64" viewBox="0 0 64 64">
  <g id="Group_55746" data-name="Group 55746" transform="translate(-944 -392)">
    <rect id="Rectangle_35160" data-name="Rectangle 35160" width="64" height="64" transform="translate(944 392)" fill="none"/>
    <path id="Union_55" data-name="Union 55" d="M18.612,51.246l-3.361-3.284a7.059,7.059,0,0,1-1.359-1.841H6a6,6,0,0,1-6-6V6A6,6,0,0,1,6,0H41.2a6,6,0,0,1,6,6V40.12a6,6,0,0,1-6,6H33.548a7.059,7.059,0,0,1-1.359,1.841l-3.361,3.284a7.345,7.345,0,0,1-10.217,0Z" transform="translate(952.4 397.6)" fill="#ffeccc"/>
    <path id="Union_55_-_Outline" data-name="Union 55 - Outline" d="M20554.723,17026.773a1.691,1.691,0,0,0,1.189-.484l6.428-6.262c.037-.037.074-.078.115-.125a3.414,3.414,0,0,1,2.59-1.182h8.1a1.666,1.666,0,0,0,1.684-1.639v-36.15a1.669,1.669,0,0,0-1.684-1.646h-37.09a1.668,1.668,0,0,0-1.687,1.646v36.15a1.666,1.666,0,0,0,1.688,1.639h8.338a3.4,3.4,0,0,1,2.588,1.182c.041.047.088.094.127.135l6.422,6.256a1.7,1.7,0,0,0,1.189.48m0,3.285a5.111,5.111,0,0,1-3.578-1.445l-6.426-6.262c-.111-.109-.219-.227-.322-.342h-8.338a5,5,0,0,1-5.059-4.928v-36.15a5,5,0,0,1,5.059-4.934h37.09a5,5,0,0,1,5.053,4.934v36.15a4.994,4.994,0,0,1-5.053,4.928h-8.1c-.1.115-.207.232-.32.342l-6.426,6.262A5.113,5.113,0,0,1,20554.723,17030.059Z" transform="translate(-19578.6 -16578.398)" fill="#eb9b1a"/>
    <path id="Path_18252" data-name="Path 18252" d="M7.046-18.018c-.136-.124-.146-.334-.173-.347A11.136,11.136,0,0,1,7.31-21.4a5.352,5.352,0,0,1,1.211-2.124,9.333,9.333,0,0,1,1.9-1.48,7.8,7.8,0,0,0,1.289-1.014,4.3,4.3,0,0,0,.907-1.289,3.815,3.815,0,0,0,.334-1.611,3.311,3.311,0,0,0-.5-1.837,3.394,3.394,0,0,0-1.33-1.2,3.993,3.993,0,0,0-1.843-.424A4.171,4.171,0,0,0,7.519-32a3.336,3.336,0,0,0-1.384,1.187A4.1,4.1,0,0,0,5.5-28.74H1.875a6.838,6.838,0,0,1,1.086-3.633,6.355,6.355,0,0,1,2.655-2.249,8.613,8.613,0,0,1,3.657-.764,8.54,8.54,0,0,1,3.842.817,6.178,6.178,0,0,1,2.559,2.279,6.3,6.3,0,0,1,.913,3.407,6.557,6.557,0,0,1-.418,2.4,6.017,6.017,0,0,1-1.187,1.9,8.27,8.27,0,0,1-1.843,1.48A7.9,7.9,0,0,0,11.5-21.784a4.138,4.138,0,0,0-.913,1.611,7.985,7.985,0,0,0-.291,1.791.716.716,0,0,1-.243.364,1.076,1.076,0,0,1-.47.147H7.419A.756.756,0,0,1,7.046-18.018Zm1.619,7.629a2.306,2.306,0,0,1-1.682-.7,2.29,2.29,0,0,1-.7-1.688,2.276,2.276,0,0,1,.7-1.676,2.306,2.306,0,0,1,1.682-.7,2.312,2.312,0,0,1,1.676.7,2.267,2.267,0,0,1,.71,1.676,2.274,2.274,0,0,1-.328,1.2,2.5,2.5,0,0,1-.865.865A2.275,2.275,0,0,1,8.664-10.389Z" transform="translate(967.09 446.42)" fill="#eb9b1a"/>
    <path id="Path_18252_-_Outline" data-name="Path 18252 - Outline" d="M8.508-10.189a2.655,2.655,0,0,1-1.929-.8,2.639,2.639,0,0,1-.808-1.937,2.625,2.625,0,0,1,.808-1.925,2.655,2.655,0,0,1,1.929-.8,2.661,2.661,0,0,1,1.922.8,2.615,2.615,0,0,1,.815,1.926,2.629,2.629,0,0,1-.379,1.38,2.859,2.859,0,0,1-.985.984A2.63,2.63,0,0,1,8.508-10.189Zm0-4.761a1.952,1.952,0,0,0-1.436.6,1.923,1.923,0,0,0-.6,1.428,1.936,1.936,0,0,0,.6,1.44,1.952,1.952,0,0,0,1.436.6,1.914,1.914,0,0,0,1.013-.272,2.137,2.137,0,0,0,.746-.746,1.913,1.913,0,0,0,.278-1.018,1.914,1.914,0,0,0-.605-1.427A1.958,1.958,0,0,0,8.508-14.95Zm.928-2.72-2.208,0a1.081,1.081,0,0,1-.573-.236.833.833,0,0,1-.224-.361l-.068-.036,0-.218a11.5,11.5,0,0,1,.454-3.137,5.721,5.721,0,0,1,1.293-2.26,9.723,9.723,0,0,1,1.964-1.534,7.48,7.48,0,0,0,1.228-.967A3.969,3.969,0,0,0,12.14-27.6a3.486,3.486,0,0,0,.3-1.465A2.983,2.983,0,0,0,12-30.717a3.063,3.063,0,0,0-1.2-1.077,3.665,3.665,0,0,0-1.684-.385,3.842,3.842,0,0,0-1.608.35,3.006,3.006,0,0,0-1.24,1.066,3.776,3.776,0,0,0-.572,1.9l-.022.327H1.355l.014-.364a7.212,7.212,0,0,1,1.145-3.815,6.729,6.729,0,0,1,2.8-2.371,9,9,0,0,1,3.8-.8,8.924,8.924,0,0,1,4,.854,6.551,6.551,0,0,1,2.7,2.407,6.669,6.669,0,0,1,.966,3.592,6.934,6.934,0,0,1-.442,2.532,6.393,6.393,0,0,1-1.256,2.013,8.656,8.656,0,0,1-1.918,1.541A7.587,7.587,0,0,0,11.6-21.7a3.81,3.81,0,0,0-.836,1.477,7.7,7.7,0,0,0-.277,1.715l0,.031-.008.03a1.068,1.068,0,0,1-.378.562,1.382,1.382,0,0,1-.651.212Zm-2.15-.7H9.41a.711.711,0,0,0,.281-.082.352.352,0,0,0,.1-.148,8.227,8.227,0,0,1,.3-1.826,4.5,4.5,0,0,1,.99-1.745A8.281,8.281,0,0,1,12.8-23.544l.005,0a7.96,7.96,0,0,0,1.766-1.417,5.7,5.7,0,0,0,1.119-1.793,6.24,6.24,0,0,0,.394-2.277,5.981,5.981,0,0,0-.86-3.221A5.861,5.861,0,0,0,12.8-34.406a8.235,8.235,0,0,0-3.686-.781,8.306,8.306,0,0,0-3.51.731,6.038,6.038,0,0,0-2.512,2.127,6.343,6.343,0,0,0-1,3.087H5.027a4.25,4.25,0,0,1,.662-1.917,3.7,3.7,0,0,1,1.528-1.308,4.538,4.538,0,0,1,1.9-.414,4.358,4.358,0,0,1,2,.462A3.755,3.755,0,0,1,12.585-31.1a3.669,3.669,0,0,1,.557,2.027,4.18,4.18,0,0,1-.366,1.757,4.667,4.667,0,0,1-.98,1.393,8.182,8.182,0,0,1-1.346,1.06l-.007,0a9.028,9.028,0,0,0-1.827,1.423,5.033,5.033,0,0,0-1.129,1.988,10.688,10.688,0,0,0-.418,2.864l.011.037a.389.389,0,0,0,.046.117A.412.412,0,0,0,7.286-18.37Z" transform="translate(967.245 446.568)" fill="rgba(0,0,0,0)"/>
  </g>
</svg>
