<svg xmlns="http://www.w3.org/2000/svg" width="40" height="40" viewBox="0 0 40 40">
  <g id="Group_5714" data-name="Group 5714" transform="translate(-1019 -4082)">
    <g id="group_black_24dp" transform="translate(1019 4082)">
      <path id="Path_599" data-name="Path 599" d="M0,0H40V40H0Z" fill="none"/>
      <path id="Path_600" data-name="Path 600" d="M13.636,19.445C9.746,19.445,2,21.376,2,25.223v2.889H25.271V25.223C25.271,21.376,17.525,19.445,13.636,19.445ZM5.89,24.81a16.111,16.111,0,0,1,7.746-2.064,16.111,16.111,0,0,1,7.746,2.064Zm7.746-8.254a5.778,5.778,0,1,0-5.818-5.778A5.8,5.8,0,0,0,13.636,16.556Zm0-8.254a2.476,2.476,0,1,1-2.493,2.476A2.482,2.482,0,0,1,13.636,8.3Zm11.7,11.242A6.912,6.912,0,0,1,28.6,25.223v2.889h6.649V25.223C35.245,21.888,29.427,19.99,25.338,19.544Zm-1.729-2.988A5.778,5.778,0,1,0,21.116,5.578a8.965,8.965,0,0,1,0,10.4A5.76,5.76,0,0,0,23.609,16.556Z" transform="translate(1.378 3.444)" fill="#848484"/>
    </g>
  </g>
</svg>
