<svg xmlns="http://www.w3.org/2000/svg" width="64" height="64" viewBox="0 0 64 64">
  <g id="Group_57031" data-name="Group 57031" transform="translate(-664 -264.421)">
    <rect id="Rectangle_35433" data-name="Rectangle 35433" width="64" height="64" transform="translate(664 264.421)" fill="none"/>
    <path id="Path_18353" data-name="Path 18353" d="M16828,2306.677l24.178-7.677v30.706l-24.178,7.676Z" transform="translate(-16131.809 -2017.739)" fill="#b4e1f8"/>
    <path id="Path_18353_-_Outline" data-name="Path 18353 - Outline" d="M16851.787,2297a1.612,1.612,0,0,1,1.611,1.611v30.706a1.611,1.611,0,0,1-1.123,1.535l-24.178,7.676a1.609,1.609,0,0,1-2.1-1.535v-30.705a1.612,1.612,0,0,1,1.123-1.535l24.178-7.676A1.6,1.6,0,0,1,16851.787,2297Zm-1.609,31.138v-27.326l-20.957,6.654v27.326Z" transform="translate(-16131.419 -2017.349)" fill="#0c78c7"/>
    <path id="Path_18354" data-name="Path 18354" d="M16828,2306.677l24.178-7.677,24.178,8.059-24.178,8.059Z" transform="translate(-16155.988 -2025.798)" fill="none"/>
    <path id="Path_18354_-_Outline" data-name="Path 18354 - Outline" d="M16851.787,2297a1.613,1.613,0,0,1,.51.083l24.178,8.06a1.61,1.61,0,0,1,0,3.056l-24.178,8.059a1.615,1.615,0,0,1-1.041-.007l-24.176-8.442a1.61,1.61,0,0,1,.043-3.056l24.178-7.676A1.6,1.6,0,0,1,16851.787,2297Zm19.086,9.67-19.1-6.366-19.072,6.055,19.1,6.668Z" transform="translate(-16155.599 -2025.409)" fill="#0c78c7"/>
    <path id="Path_18356" data-name="Path 18356" d="M16852.178,2306.677,16828,2299v30.706l24.178,7.676Z" transform="translate(-16155.988 -2017.739)" fill="none"/>
    <path id="Path_18356_-_Outline" data-name="Path 18356 - Outline" d="M16827.611,2297a1.609,1.609,0,0,1,.486.076l24.178,7.676a1.612,1.612,0,0,1,1.123,1.535v30.705a1.611,1.611,0,0,1-2.1,1.535l-24.178-7.676a1.611,1.611,0,0,1-1.123-1.535v-30.706a1.609,1.609,0,0,1,1.611-1.611Zm22.566,10.465-20.957-6.654v27.326l20.957,6.654Z" transform="translate(-16155.599 -2017.349)" fill="#0c78c7"/>
    <path id="Path_18355" data-name="Path 18355" d="M15704.256,2293.7a1.609,1.609,0,0,1-.57-.1l-22.035-8.336a1.611,1.611,0,0,1,1.141-3.013l22.035,8.336a1.611,1.611,0,0,1-.57,3.117Z" transform="translate(-14995.461 -2006.994)" fill="#0c78c7"/>
    <path id="Path_18677" data-name="Path 18677" d="M1.611,13.562A1.61,1.61,0,0,1,0,11.951V1.61a1.611,1.611,0,0,1,3.221,0V11.951A1.61,1.61,0,0,1,1.611,13.562Z" transform="translate(689.119 304.651) rotate(108)" fill="#0c78c7"/>
    <path id="Path_18678" data-name="Path 18678" d="M1.611,9.591A1.611,1.611,0,0,1,0,7.98V1.61a1.611,1.611,0,0,1,3.221,0V7.98A1.611,1.611,0,0,1,1.611,9.591Z" transform="translate(685.342 308.256) rotate(108)" fill="#0c78c7"/>
  </g>
</svg>
