<svg xmlns="http://www.w3.org/2000/svg" width="64" height="64" viewBox="0 0 64 64">
  <g id="Group_57029" data-name="Group 57029" transform="translate(-320 -240.413)">
    <path id="Subtraction_34" data-name="Subtraction 34" d="M49.563,39H40.61l2.328-3.225v-.025h5.813V3.25H42.938V0h6.625A2.44,2.44,0,0,1,52,2.437V36.564A2.44,2.44,0,0,1,49.563,39ZM32.718,39H8.126A8.134,8.134,0,0,1,0,30.876V2.437A2.44,2.44,0,0,1,1.979.044l-.253.88V31.331l1.526-2.325v1.871c-.118,1.772-.032,3.128.773,3.988a3.857,3.857,0,0,0,2.945.95c.357,0,.746-.021,1.156-.062H30.281v.025L32.717,39ZM30.281,3.25H11.572L11.518,0H30.281V3.249Z" transform="translate(326 252.413)" fill="#0c78c7"/>
    <rect id="Rectangle_35806" data-name="Rectangle 35806" width="64" height="64" transform="translate(320 240.413)" fill="none"/>
    <path id="Subtraction_31" data-name="Subtraction 31" d="M7.686,50.646h0l-6.61-8.7V4.748A4.549,4.549,0,0,1,5.384,0H9.692A4.549,4.549,0,0,1,14,4.748V41.941l-6.314,8.7Zm-6.095-39.3v3.25h10.82v-3.25Z" transform="translate(355 246.413)" fill="#b4e1f8"/>
    <path id="Path_18673" data-name="Path 18673" d="M-861.682,12176.387h-3.463l-3.927,2.633-.806,2.8v30.131l1.86-2.834,2.873-1.006h5.417l-.519-31.727Z" transform="translate(1198.028 -11928.022)" fill="#b4e1f8"/>
    <path id="Path_18676" data-name="Path 18676" d="M4.831,3.221a1.612,1.612,0,0,0-1.61,1.61V41.5l4.135,4.94,3.917-4.9V4.831a1.612,1.612,0,0,0-1.61-1.61H4.831M4.831,0H9.662a4.831,4.831,0,0,1,4.831,4.831V42.674L7.413,51.53,0,42.674V4.831A4.831,4.831,0,0,1,4.831,0Z" transform="translate(355.427 246.441)" fill="#0c78c7"/>
    <path id="Subtraction_30" data-name="Subtraction 30" d="M.047,37.884h0A8.178,8.178,0,0,1,0,37.039V8.052A8.061,8.061,0,0,1,8.052,0h2.417a2.418,2.418,0,0,1,2.415,2.416V14.223H23.89a1.61,1.61,0,1,1,0,3.219H12.884v3.495h8.156a1.611,1.611,0,0,1,0,3.221H12.884v3.491h4.784a1.611,1.611,0,0,1,0,3.223H12.884v3.211a1.922,1.922,0,0,0-1.932-1.874H9.664V3.224H8.052A4.834,4.834,0,0,0,3.223,8.052V33.07A6.468,6.468,0,0,0,.047,37.884Z" transform="translate(326.44 246.441)" fill="#0c78c7"/>
    <path id="Subtraction_29" data-name="Subtraction 29" d="M11.275,13H6.632A6.573,6.573,0,0,1,0,6.5,6.574,6.574,0,0,1,6.632,0h4.643A1.972,1.972,0,0,1,13.264,1.95v1.3H6.632A3.287,3.287,0,0,0,3.317,6.5a3.287,3.287,0,0,0,3.316,3.25h6.632v1.3A1.972,1.972,0,0,1,11.275,13Z" transform="translate(326 278.413)" fill="#0c78c7"/>
    <path id="Path_18677" data-name="Path 18677" d="M-900.8,12186.18H-912v-3.221h11.2Z" transform="translate(1269.074 -11927.694)" fill="#0c78c7"/>
    <path id="Path_18677-2" data-name="Path 18677" d="M-900.8,12186.18H-912v-3.221h11.2Z" transform="translate(1269.074 -11922.863)" fill="#0c78c7"/>
  </g>
</svg>
