<svg xmlns="http://www.w3.org/2000/svg" width="64" height="64" viewBox="0 0 64 64">
  <g id="Group_57198" data-name="Group 57198" transform="translate(-352 -256.386)">
    <g id="Group_57182" data-name="Group 57182" transform="translate(360.111 261.707)">
      <g id="Group_57181" data-name="Group 57181">
        <path id="Path_18674_-_Outline" data-name="Path 18674 - Outline" d="M3.219,3.219v45.07H39.374V10.939l-3.522-3.9-3.78-3.817H3.219M2.282,0H33.415l4.777,4.824,4.4,4.877V49.094a2.351,2.351,0,0,1-2.282,2.414H2.282A2.351,2.351,0,0,1,0,49.094V2.414A2.351,2.351,0,0,1,2.282,0Z" transform="translate(0 0.732)" fill="#0c78c7"/>
        <path id="Polygon_2" data-name="Polygon 2" d="M7.813,3.558,7.813,0A2.407,2.407,0,0,1,9.529.716l5.394,5.449a2.414,2.414,0,0,1-1.716,4.113H2.419A2.414,2.414,0,0,1,.7,6.165L6.1.716A2.407,2.407,0,0,1,7.813,0Z" transform="translate(35.68 18.316) rotate(-135)" fill="#b4e1f8"/>
        <path id="Polygon_2-2" data-name="Polygon 2" d="M7.813,3.558l-3.464,3.5h6.929l-3.464-3.5M7.813,0A2.407,2.407,0,0,1,9.529.716l5.394,5.449a2.414,2.414,0,0,1-1.716,4.113H2.419A2.414,2.414,0,0,1,.7,6.165L6.1.716A2.407,2.407,0,0,1,7.813,0Z" transform="translate(35.68 18.316) rotate(-135)" fill="#0c78c7"/>
        <path id="Rectangle_35816_-_Outline" data-name="Rectangle 35816 - Outline" d="M3.219,3.219h0V16.1s0,0,0,0h23.34V3.219s0,0,0,0H3.219M3.219,0h23.34a3.219,3.219,0,0,1,3.219,3.219V16.1a3.219,3.219,0,0,1-3.219,3.219H3.219A3.219,3.219,0,0,1,0,16.1V3.219A3.219,3.219,0,0,1,3.219,0Z" transform="translate(6.376 16.024)" fill="#0c78c7"/>
        <path id="Line_772" data-name="Line 772" d="M25.754,1.219H0V-2H25.754Z" transform="translate(7.181 26.072)" fill="#0c78c7"/>
        <path id="Line_773" data-name="Line 773" d="M1.219,12.877H-2V0H1.219Z" transform="translate(17.229 19.243)" fill="#0c78c7"/>
        <path id="Line_774" data-name="Line 774" d="M1.219,12.877H-2V0H1.219Z" transform="translate(26.082 19.243)" fill="#0c78c7"/>
        <circle id="Ellipse_946" data-name="Ellipse 946" cx="12.5" cy="12.5" r="12.5" transform="translate(24.89 21.679)" fill="#b4e1f8"/>
        <path id="Ellipse_946_-_Outline" data-name="Ellipse 946 - Outline" d="M13.682,3.219a10.463,10.463,0,0,0-7.4,17.861,10.463,10.463,0,0,0,14.8-14.8,10.394,10.394,0,0,0-7.4-3.064m0-3.219A13.682,13.682,0,1,1,0,13.682,13.682,13.682,0,0,1,13.682,0Z" transform="translate(23.277 20.048)" fill="#0c78c7"/>
        <text id="_" data-name="$" transform="translate(32.889 39.679)" fill="#0c78c7" font-size="16" font-family="Roboto-Black, Roboto" font-weight="800"><tspan x="0" y="0">$</tspan></text>
      </g>
    </g>
    <rect id="Rectangle_35824" data-name="Rectangle 35824" width="64" height="64" transform="translate(352 256.386)" fill="none"/>
  </g>
</svg>
