<svg xmlns="http://www.w3.org/2000/svg" width="64" height="64" viewBox="0 0 64 64">
  <g id="Group_55779" data-name="Group 55779" transform="translate(-1264 -1560)">
    <rect id="Rectangle_35206" data-name="Rectangle 35206" width="64" height="64" transform="translate(1264 1560)" fill="none"/>
    <path id="Path_18285" data-name="Path 18285" d="M0,0H37.6c1.325,0,2.734,1,2.192,2.683L30.4,18.4a3.732,3.732,0,0,1-3.2,2.4H9.644Z" transform="translate(1276.8 1573.6)" fill="#e7deff"/>
    <path id="Path_18285_-_Outline" data-name="Path 18285 - Outline" d="M5.011,3.2l6.676,14.4H27.094a1.988,1.988,0,0,0,.444-.631l.054-.107L35.755,3.2H5.011M0,0H37.6c1.325,0,2.734,1,2.192,2.683L30.4,18.4a3.732,3.732,0,0,1-3.2,2.4H9.644Z" transform="translate(1276.8 1573.6)" fill="#7f55ea"/>
    <path id="Path_18286" data-name="Path 18286" d="M-19219.137-15370.97h-28.223a1.6,1.6,0,0,1-1.395-.815,1.605,1.605,0,0,1,.027-1.616l5.045-8.3-8.906-19.1h-4.521a1.6,1.6,0,0,1-1.6-1.6,1.6,1.6,0,0,1,1.6-1.6h5.539a1.6,1.6,0,0,1,1.451.924l9.7,20.8a1.6,1.6,0,0,1-.082,1.507l-4.012,6.6h25.377a1.6,1.6,0,0,1,1.6,1.6A1.6,1.6,0,0,1-19219.137-15370.97Z" transform="translate(20528.869 16973.602)" fill="#7f55ea"/>
    <circle id="Ellipse_828" data-name="Ellipse 828" cx="4" cy="4" r="4" transform="translate(1302 1605)" fill="#7f55ea"/>
    <circle id="Ellipse_829" data-name="Ellipse 829" cx="4" cy="4" r="4" transform="translate(1281 1605)" fill="#7f55ea"/>
  </g>
</svg>
