<svg xmlns="http://www.w3.org/2000/svg" width="64" height="64" viewBox="0 0 64 64">
  <g id="Group_55783" data-name="Group 55783" transform="translate(-800 -1560)">
    <rect id="Rectangle_35188" data-name="Rectangle 35188" width="64" height="64" transform="translate(800 1560)" fill="none"/>
    <path id="Rectangle_35189" data-name="Rectangle 35189" d="M0,0H38a0,0,0,0,1,0,0V26a3,3,0,0,1-3,3H3a3,3,0,0,1-3-3V0A0,0,0,0,1,0,0Z" transform="translate(813 1584)" fill="#e7deff"/>
    <path id="Rectangle_35189_-_Outline" data-name="Rectangle 35189 - Outline" d="M3.2,3.2V25.6h32V3.2H3.2M0,0H38.4V26.4A2.4,2.4,0,0,1,36,28.8H2.4A2.4,2.4,0,0,1,0,26.4Z" transform="translate(812.8 1584)" fill="#7f55ea"/>
    <rect id="Rectangle_35190" data-name="Rectangle 35190" width="44" height="16" rx="4" transform="translate(810 1571)" fill="none"/>
    <path id="Rectangle_35190_-_Outline" data-name="Rectangle 35190 - Outline" d="M3.2,3.2v9.6s0,0,0,0H41.6V3.2H3.2M3.2,0H41.6a3.2,3.2,0,0,1,3.2,3.2v9.6A3.2,3.2,0,0,1,41.6,16H3.2A3.2,3.2,0,0,1,0,12.8V3.2A3.2,3.2,0,0,1,3.2,0Z" transform="translate(809.6 1571.2)" fill="#7f55ea"/>
    <path id="Path_18273" data-name="Path 18273" d="M-19689.8-15366.8h-9.6a1.6,1.6,0,0,1-1.6-1.6,1.6,1.6,0,0,1,1.6-1.6h9.6a1.6,1.6,0,0,1,1.6,1.6A1.6,1.6,0,0,1-19689.8-15366.8Z" transform="translate(20526.602 16962)" fill="#7f55ea"/>
  </g>
</svg>
