<svg xmlns="http://www.w3.org/2000/svg" width="64" height="64" viewBox="0 0 64 64">
  <g id="Group_55778" data-name="Group 55778" transform="translate(-1008 -1552)">
    <rect id="Rectangle_33803" data-name="Rectangle 33803" width="64" height="64" transform="translate(1008 1552)" fill="none"/>
    <path id="Subtraction_22" data-name="Subtraction 22" d="M0,30.482H0V6.1L19.2,0V17.6a9.6,9.6,0,0,0-9.6,9.6c0,.076,0,.152,0,.228L0,30.481Z" transform="translate(1035.2 1569.598)" fill="#e7deff"/>
    <path id="Subtraction_22_-_Outline" data-name="Subtraction 22 - Outline" d="M20530.6,17007.68a1.6,1.6,0,0,1-1.6-1.6V16981.7a1.6,1.6,0,0,1,1.117-1.523l19.2-6.1a1.667,1.667,0,0,1,.484-.074,1.6,1.6,0,0,1,1.6,1.6v17.6a1.6,1.6,0,0,1-1.6,1.6,7.992,7.992,0,0,0-8,8v.227a1.6,1.6,0,0,1-1.113,1.525l-9.578,3.045A1.609,1.609,0,0,1,20530.6,17007.68Zm1.6-24.811v21.023l6.441-2.049a11.2,11.2,0,0,1,9.563-10.133v-13.926Z" transform="translate(-19495.4 -15406)" fill="#7f55ea"/>
    <path id="Path_18026" data-name="Path 18026" d="M16846.8,2297a1.6,1.6,0,0,1,.506.082l19.2,6.4a1.6,1.6,0,0,1,0,3.036l-19.2,6.4a1.609,1.609,0,0,1-1.035-.007l-19.2-6.7a1.6,1.6,0,0,1,.043-3.035l19.2-6.1A1.59,1.59,0,0,1,16846.8,2297Zm14.141,8-14.154-4.717-14.127,4.485,14.152,4.941Z" transform="translate(-15811.6 -735.4)" fill="#7f55ea"/>
    <path id="Path_18023" data-name="Path 18023" d="M16847.2,2305.1l-19.2-6.1v24.384l19.2,6.1Z" transform="translate(-15812 -729.4)" fill="#e7deff"/>
    <path id="Path_18023_-_Outline" data-name="Path 18023 - Outline" d="M16827.6,2297a1.6,1.6,0,0,1,.484.075l19.2,6.1a1.6,1.6,0,0,1,1.115,1.525v24.384a1.6,1.6,0,0,1-2.084,1.525l-19.2-6.1a1.6,1.6,0,0,1-1.115-1.525V2298.6a1.6,1.6,0,0,1,1.6-1.6Zm17.6,8.867-16-5.08v21.027l16,5.08Z" transform="translate(-15811.6 -729)" fill="#7f55ea"/>
    <path id="Path_18274" data-name="Path 18274" d="M-19480.471-15397.222a1.61,1.61,0,0,1-.545-.1l-17.506-6.34a1.6,1.6,0,0,1-.959-2.05,1.6,1.6,0,0,1,2.049-.96l17.506,6.34a1.6,1.6,0,0,1,.961,2.05A1.6,1.6,0,0,1-19480.471-15397.222Z" transform="translate(20524.881 16971.328)" fill="#7f55ea"/>
    <ellipse id="Ellipse_825" data-name="Ellipse 825" cx="11.5" cy="11" rx="11.5" ry="11" transform="translate(1043 1586)" fill="none"/>
    <path id="Ellipse_825_-_Outline" data-name="Ellipse 825 - Outline" d="M11.2,3.2a8,8,0,1,0,8,8,8.009,8.009,0,0,0-8-8m0-3.2A11.2,11.2,0,1,1,0,11.2,11.2,11.2,0,0,1,11.2,0Z" transform="translate(1043.2 1585.6)" fill="#7f55ea"/>
    <path id="Path_18277" data-name="Path 18277" d="M-19465.4-15364.057a1.6,1.6,0,0,1-1.6-1.6v-8.384a1.6,1.6,0,0,1,1.6-1.6,1.6,1.6,0,0,1,1.6,1.6v8.384A1.6,1.6,0,0,1-19465.4-15364.057Z" transform="translate(20519.801 16966.328)" fill="#7f55ea"/>
    <path id="Path_18278" data-name="Path 18278" d="M1.6,11.584A1.6,1.6,0,0,1,0,9.983V1.6a1.6,1.6,0,0,1,3.2,0V9.983A1.6,1.6,0,0,1,1.6,11.584Z" transform="translate(1060.194 1594.88) rotate(90)" fill="#7f55ea"/>
  </g>
</svg>
