<svg id="Group_7099" data-name="Group 7099" xmlns="http://www.w3.org/2000/svg" width="80" height="80" viewBox="0 0 80 80">
  <rect id="Rectangle_33488" data-name="Rectangle 33488" width="80" height="80" fill="none"/>
  <path id="Subtraction_26" data-name="Subtraction 26" d="M16118.5,9614a24.5,24.5,0,0,1-22.588-15h23.589a9.5,9.5,0,0,0,0-19h-23.589a24.513,24.513,0,1,1,22.588,34Z" transform="translate(-16068 -9551)" fill="#d1bfff"/>
  <path id="Subtraction_27" data-name="Subtraction 27" d="M16118.5,9614a24.5,24.5,0,0,1-22.588-15h4.413a20.613,20.613,0,0,0,3.679,5,20.469,20.469,0,1,0-3.679-24h-4.413a24.513,24.513,0,1,1,22.588,34Z" transform="translate(-16068 -9551)" fill="#4a25aa"/>
  <path id="Rectangle_33489_-_Outline" data-name="Rectangle 33489 - Outline" d="M9.5,4a5.5,5.5,0,0,0,0,11h37a5.5,5.5,0,0,0,0-11H9.5m0-4h37a9.5,9.5,0,0,1,0,19H9.5a9.5,9.5,0,0,1,0-19Z" transform="translate(5 29)" fill="#4a25aa"/>
</svg>
