<svg xmlns="http://www.w3.org/2000/svg" width="80" height="80" viewBox="0 0 80 80">
  <g id="Group_56007" data-name="Group 56007" transform="translate(-544 -328)">
    <rect id="Rectangle_33496" data-name="Rectangle 33496" width="80" height="80" transform="translate(544 328)" fill="none"/>
    <rect id="Rectangle_33497" data-name="Rectangle 33497" width="40" height="35" rx="6" transform="translate(572 336)" fill="#d1bfff"/>
    <path id="Rectangle_35017" data-name="Rectangle 35017" d="M6,4A2,2,0,0,0,4,6V58a2,2,0,0,0,2,2H34a2,2,0,0,0,2-2V6a2,2,0,0,0-2-2H6M6,0H34a6,6,0,0,1,6,6V58a6,6,0,0,1-6,6H6a6,6,0,0,1-6-6V6A6,6,0,0,1,6,0Z" transform="translate(572 336)" fill="#4a25aa"/>
    <g id="Group_55549" data-name="Group 55549" transform="translate(-8 -3)">
      <circle id="Ellipse_641" data-name="Ellipse 641" cx="2" cy="2" r="2" transform="translate(589 347)" fill="#4a25aa"/>
      <circle id="Ellipse_644" data-name="Ellipse 644" cx="2" cy="2" r="2" transform="translate(589 356)" fill="#4a25aa"/>
      <circle id="Ellipse_647" data-name="Ellipse 647" cx="2" cy="2" r="2" transform="translate(589 365)" fill="#4a25aa"/>
      <circle id="Ellipse_642" data-name="Ellipse 642" cx="2" cy="2" r="2" transform="translate(598 347)" fill="#4a25aa"/>
      <circle id="Ellipse_645" data-name="Ellipse 645" cx="2" cy="2" r="2" transform="translate(598 356)" fill="#4a25aa"/>
      <circle id="Ellipse_648" data-name="Ellipse 648" cx="2" cy="2" r="2" transform="translate(598 365)" fill="#4a25aa"/>
      <circle id="Ellipse_643" data-name="Ellipse 643" cx="2" cy="2" r="2" transform="translate(607 347)" fill="#4a25aa"/>
      <circle id="Ellipse_646" data-name="Ellipse 646" cx="2" cy="2" r="2" transform="translate(607 356)" fill="#4a25aa"/>
      <circle id="Ellipse_649" data-name="Ellipse 649" cx="2" cy="2" r="2" transform="translate(607 365)" fill="#4a25aa"/>
    </g>
    <rect id="Rectangle_35020" data-name="Rectangle 35020" width="51" height="14" rx="7" transform="translate(551 377)" fill="#d1bfff"/>
    <path id="Rectangle_35020_-_Outline" data-name="Rectangle 35020 - Outline" d="M7,4a3,3,0,0,0,0,6H44a3,3,0,0,0,0-6H7M7,0H44a7,7,0,0,1,0,14H7A7,7,0,0,1,7,0Z" transform="translate(551 377)" fill="#4a25aa"/>
  </g>
</svg>
